<svg width="1736" height="1042" xmlns="http://www.w3.org/2000/svg" xmlns:xlink="http://www.w3.org/1999/xlink" xml:space="preserve" overflow="hidden"><defs><clipPath id="clip0"><rect x="1707" y="276" width="1736" height="1042"/></clipPath></defs><g clip-path="url(#clip0)" transform="translate(-1707 -276)"><rect x="1708" y="277" width="1733" height="1039" fill="#FFFFFF"/><g><path d="M1982.5 921.53 3390.5 921.53M1982.5 847.528 3390.5 847.528M1982.5 772.526 3390.5 772.526M1982.5 697.523 3390.5 697.523M1982.5 623.521 3390.5 623.521M1982.5 548.518 3390.5 548.518M1982.5 474.5 3390.5 474.5" stroke="#D9D9D9" stroke-width="3.4375" stroke-linejoin="round" stroke-miterlimit="10" fill="none"/></g><g><path d="M1997.07 789.026 2055.07 789.026 2055.07 996 1997.07 996ZM2085.07 742.024 2143.07 742.024 2143.07 996 2085.07 996ZM2173.07 687.023 2231.07 687.023 2231.07 996 2173.07 996ZM2261.07 587.019 2319.08 587.019 2319.08 996 2261.07 996ZM2349.08 550.018 2407.08 550.018 2407.08 996 2349.08 996ZM2437.08 714.023 2495.08 714.023 2495.08 996 2437.08 996ZM2525.08 830.027 2583.08 830.027 2583.08 996 2525.08 996ZM2613.09 873.029 2671.09 873.029 2671.09 996 2613.09 996ZM2701.09 902.03 2759.09 902.03 2759.09 996 2701.09 996ZM2789.09 920.03 2847.09 920.03 2847.09 996 2789.09 996ZM2877.09 930.031 2935.1 930.031 2935.1 996 2877.09 996ZM2965.1 937.031 3023.1 937.031 3023.1 996 2965.1 996ZM3053.1 944.031 3111.1 944.031 3111.1 996 3053.1 996ZM3141.1 938.031 3200.1 938.031 3200.1 996 3141.1 996ZM3229.11 953.031 3288.11 953.031 3288.11 996 3229.11 996ZM3317.11 957.031 3376.11 957.031 3376.11 996 3317.11 996Z" fill="#4E95D9"/></g><g><path d="M1982.5 996.5 3390.5 996.5" stroke="#D9D9D9" stroke-width="3.4375" stroke-linejoin="round" stroke-miterlimit="10" fill="none" fill-rule="evenodd"/></g><g><text font-family="Aptos Narrow,Aptos Narrow_MSFontService,sans-serif" font-weight="400" font-stretch="semi-condensed" font-size="64" transform="matrix(1 0 0 1 1890.33 1014)">0</text></g><g><text font-family="Aptos Narrow,Aptos Narrow_MSFontService,sans-serif" font-weight="400" font-stretch="semi-condensed" font-size="64" transform="matrix(1 0 0 1 1857.81 939)">10</text></g><g><text font-family="Aptos Narrow,Aptos Narrow_MSFontService,sans-serif" font-weight="400" font-stretch="semi-condensed" font-size="64" transform="matrix(1 0 0 1 1857.81 865)">20</text></g><g><text font-family="Aptos Narrow,Aptos Narrow_MSFontService,sans-serif" font-weight="400" font-stretch="semi-condensed" font-size="64" transform="matrix(1 0 0 1 1857.81 790)">30</text></g><g><text font-family="Aptos Narrow,Aptos Narrow_MSFontService,sans-serif" font-weight="400" font-stretch="semi-condensed" font-size="64" transform="matrix(1 0 0 1 1857.81 715)">40</text></g><g><text font-family="Aptos Narrow,Aptos Narrow_MSFontService,sans-serif" font-weight="400" font-stretch="semi-condensed" font-size="64" transform="matrix(1 0 0 1 1857.81 641)">50</text></g><g><text font-family="Aptos Narrow,Aptos Narrow_MSFontService,sans-serif" font-weight="400" font-stretch="semi-condensed" font-size="64" transform="matrix(1 0 0 1 1857.81 566)">60</text></g><g><text font-family="Aptos Narrow,Aptos Narrow_MSFontService,sans-serif" font-weight="400" font-stretch="semi-condensed" font-size="64" transform="matrix(1 0 0 1 1857.81 491)">70</text></g><g><text font-family="Aptos Narrow,Aptos Narrow_MSFontService,sans-serif" font-weight="400" font-stretch="semi-condensed" font-size="64" transform="matrix(6.12323e-17 -1 1 6.12323e-17 2046.93 1167)">2008</text></g><g><text font-family="Aptos Narrow,Aptos Narrow_MSFontService,sans-serif" font-weight="400" font-stretch="semi-condensed" font-size="64" transform="matrix(6.12323e-17 -1 1 6.12323e-17 2134.95 1167)">2009</text></g><g><text font-family="Aptos Narrow,Aptos Narrow_MSFontService,sans-serif" font-weight="400" font-stretch="semi-condensed" font-size="64" transform="matrix(6.12323e-17 -1 1 6.12323e-17 2222.96 1167)">2010</text></g><g><text font-family="Aptos Narrow,Aptos Narrow_MSFontService,sans-serif" font-weight="400" font-stretch="semi-condensed" font-size="64" transform="matrix(6.12323e-17 -1 1 6.12323e-17 2310.97 1167)">2011</text></g><g><text font-family="Aptos Narrow,Aptos Narrow_MSFontService,sans-serif" font-weight="400" font-stretch="semi-condensed" font-size="64" transform="matrix(6.12323e-17 -1 1 6.12323e-17 2398.99 1167)">2012</text></g><g><text font-family="Aptos Narrow,Aptos Narrow_MSFontService,sans-serif" font-weight="400" font-stretch="semi-condensed" font-size="64" transform="matrix(6.12323e-17 -1 1 6.12323e-17 2487 1167)">2013</text></g><g><text font-family="Aptos Narrow,Aptos Narrow_MSFontService,sans-serif" font-weight="400" font-stretch="semi-condensed" font-size="64" transform="matrix(6.12323e-17 -1 1 6.12323e-17 2575.01 1167)">2014</text></g><g><text font-family="Aptos Narrow,Aptos Narrow_MSFontService,sans-serif" font-weight="400" font-stretch="semi-condensed" font-size="64" transform="matrix(6.12323e-17 -1 1 6.12323e-17 2663.03 1167)">2015</text></g><g><text font-family="Aptos Narrow,Aptos Narrow_MSFontService,sans-serif" font-weight="400" font-stretch="semi-condensed" font-size="64" transform="matrix(6.12323e-17 -1 1 6.12323e-17 2751.04 1167)">2016</text></g><g><text font-family="Aptos Narrow,Aptos Narrow_MSFontService,sans-serif" font-weight="400" font-stretch="semi-condensed" font-size="64" transform="matrix(6.12323e-17 -1 1 6.12323e-17 2839.05 1167)">2017</text></g><g><text font-family="Aptos Narrow,Aptos Narrow_MSFontService,sans-serif" font-weight="400" font-stretch="semi-condensed" font-size="64" transform="matrix(6.12323e-17 -1 1 6.12323e-17 2927.07 1167)">2018</text></g><g><text font-family="Aptos Narrow,Aptos Narrow_MSFontService,sans-serif" font-weight="400" font-stretch="semi-condensed" font-size="64" transform="matrix(6.12323e-17 -1 1 6.12323e-17 3015.08 1167)">2019</text></g><g><text font-family="Aptos Narrow,Aptos Narrow_MSFontService,sans-serif" font-weight="400" font-stretch="semi-condensed" font-size="64" transform="matrix(6.12323e-17 -1 1 6.12323e-17 3103.09 1167)">2020</text></g><g><text font-family="Aptos Narrow,Aptos Narrow_MSFontService,sans-serif" font-weight="400" font-stretch="semi-condensed" font-size="64" transform="matrix(6.12323e-17 -1 1 6.12323e-17 3191.11 1167)">2021</text></g><g><text font-family="Aptos Narrow,Aptos Narrow_MSFontService,sans-serif" font-weight="400" font-stretch="semi-condensed" font-size="64" transform="matrix(6.12323e-17 -1 1 6.12323e-17 3279.12 1167)">2022</text></g><g><text font-family="Aptos Narrow,Aptos Narrow_MSFontService,sans-serif" font-weight="400" font-stretch="semi-condensed" font-size="64" transform="matrix(6.12323e-17 -1 1 6.12323e-17 3367.13 1167)">2023</text></g><g><text font-family="Aptos Narrow,Aptos Narrow_MSFontService,sans-serif" font-weight="400" font-stretch="semi-condensed" font-size="64" transform="matrix(6.12323e-17 -1 1 6.12323e-17 1825.72 822)">in Mrd.</text></g><g><text font-family="Aptos Narrow,Aptos Narrow_MSFontService,sans-serif" font-weight="400" font-stretch="semi-condensed" font-size="64" transform="matrix(1 0 0 1 2634.5 1240)">Jahr</text></g><g><text font-family="Aptos Narrow,Aptos Narrow_MSFontService,sans-serif" font-weight="400" font-stretch="semi-condensed" font-size="77" transform="matrix(1 0 0 1 2329.98 383)">versendete SMS</text></g><rect x="1708.5" y="277.5" width="1733" height="1039" stroke="#D9D9D9" stroke-width="3.4375" stroke-linejoin="round" stroke-miterlimit="10" fill="none"/></g></svg>